REM MD5 dc253585d854717420a5dab2c2904b07
FILE "Riichi Mahjong - Ohitorisama demo Utemasu! (Japan).bin" BINARY
  TRACK 01 MODE2/2352
    INDEX 01 00:00:00
  TRACK 02 AUDIO
    INDEX 00 05:46:06
    INDEX 01 05:48:06
  TRACK 03 AUDIO
    INDEX 00 07:58:45
    INDEX 01 08:00:45
  TRACK 04 AUDIO
    INDEX 00 11:03:69
    INDEX 01 11:05:69
  TRACK 05 AUDIO
    INDEX 00 11:11:12
    INDEX 01 11:13:12
REM LEADOUT 14:27:46
